IKResults																		
version=1																		
nRows=38																		
nColumns=19																		
inDegrees=yes																		
																		
"Units are S.I. units (second, meters, Newtons, ...)"																		
"If the header above contains a line with 'inDegrees', this indicates whether rotational values are in degrees (yes) or radians (no)."																		
																		
endheader																		
time	pelvis_tilt	pelvis_list	pelvis_rotation	pelvis_tx	pelvis_ty	pelvis_tz	hip_flexion_r	hip_adduction_r	hip_rotation_r	knee_angle_r	knee_angle_r_beta	ankle_angle_r	hip_flexion_l	hip_adduction_l	hip_rotation_l	knee_angle_l	knee_angle_l_beta	ankle_angle_l
5.91	-0.34132986	7.06500485	-179.7573168	0	0.85213404	-0.47147109	15.37968534	3.42567382	-16.16975418	21.5829493	0.37669353	5.29129602	11.38527689	-15.03853696	-0.99121818	16.82205564	0.29360026	-18.18431805
5.92	-0.42606522	7.05841072	-179.7564816	0	0.85320058	-0.47288608	14.64741628	3.70507206	-15.61402536	21.20564999	0.37010841	5.79549944	12.55180433	-15.21330447	-0.7751394	18.74708945	0.32719844	-17.15144989
5.93	-0.59873712	6.84912043	-179.7521883	0	0.85442557	-0.47410953	13.88352807	3.69240677	-15.27402774	20.93686376	0.36541721	6.07116512	13.48011847	-14.99977083	-0.49572301	20.26168714	0.35363315	-16.28684415
5.94	-0.77386217	6.65472857	-179.7463376	0	0.85556204	-0.4751798	13.1112903	3.68176046	-14.92639851	20.65757061	0.36054262	6.39475313	14.39335885	-14.7614089	-0.25546914	21.62218107	0.37737825	-15.12097682
5.95	-0.97627051	6.4351355	-179.7411099	0	0.8566813	-0.47618918	12.32678448	3.63367862	-14.57192767	20.39646296	0.35598543	6.71251684	15.23062417	-14.46343585	-0.07672013	22.75001283	0.39706263	-13.84202569
5.96	-1.15370604	6.21586546	-179.7358372	0	0.8577017	-0.47709866	11.58182869	3.57153708	-14.24725111	20.13855521	0.35148409	7.03667936	16.05744886	-14.13533912	0.0414369	23.64688807	0.41271605	-12.4613703
5.97	-1.32055916	5.99720348	-179.7308147	0	0.85863087	-0.47793642	10.86631737	3.49710067	-13.92852555	19.90886829	0.3474753	7.35623793	16.85950458	-13.79716598	0.08209501	24.31928813	0.42445165	-11.03728602
5.98	-1.47353269	5.78037731	-179.7249039	0	0.85945756	-0.47867417	10.18684068	3.41087494	-13.61858756	19.70741652	0.34395931	7.66706122	17.63096009	-13.45446358	0.03721887	24.74846809	0.43194225	-9.6505514
5.99	-1.61373328	5.56150201	-179.7184366	0	0.86020206	-0.47934813	9.5434361	3.31091825	-13.32230734	19.52588704	0.34079102	7.98173081	18.38428133	-13.10515349	-0.08459996	24.93911477	0.43526967	-8.34316436
6	-1.73190679	5.38921352	-179.7101056	0	0.86077838	-0.47996761	8.94453322	3.23831677	-13.12159023	19.38461618	0.33832538	8.32347717	19.13386045	-12.83196296	-0.29542292	24.93445541	0.43518834	-7.04500014
6.01	-1.80108443	5.22248569	-179.7042511	0	0.86126485	-0.48055811	8.41910325	3.14511161	-13.04373929	19.26400933	0.33622039	8.52889677	19.88414811	-12.63797151	-0.69355924	24.63157314	0.42990205	-6.37626544
6.02	-1.91773681	5.02655601	-179.6954498	0	0.86163804	-0.48096859	7.85762642	3.05133593	-12.63713149	19.17883036	0.33473374	9.0067605	20.52299084	-12.23643534	-0.91993198	24.17335524	0.42190464	-4.94961762
6.03	-1.94587414	4.97678653	-179.6852352	0	0.86181594	-0.48143694	7.42505616	3.05563001	-12.63426421	19.13330151	0.33393911	9.22261877	21.27585604	-12.17674048	-1.39708788	23.52692877	0.41062237	-4.37590292
6.04	-2.03040779	4.76801094	-179.6772868	0	0.86197569	-0.48170456	6.93246196	2.92123667	-12.26386957	19.10663757	0.33347373	9.72869272	21.84534237	-11.78395325	-1.79855511	22.61843721	0.3947662	-3.36607575
6.05	-2.02360664	4.83127349	-179.6635103	0	0.8618348	-0.48205557	6.58152408	3.02425763	-12.3186631	19.12781476	0.33384335	9.94846364	22.59387628	-11.8595806	-2.35539046	21.67869904	0.37836468	-2.8999548
6.06	-1.99247509	4.85293951	-179.6495423	0	0.86159616	-0.48231467	6.25614738	3.09675941	-12.21830683	19.15845135	0.33437806	10.26784064	23.29414243	-11.82561043	-2.89473483	20.53505815	0.35840438	-2.37663251
6.07	-2.19720428	4.50147373	-179.6414001	0	0.86167252	-0.48234149	5.69651438	2.76146222	-11.89302002	19.28209423	0.33653603	10.9719321	23.46993634	-11.2183691	-3.45200521	18.87848555	0.32949173	-2.04279179
6.08	-2.1575741	4.52386624	-179.6331469	0	0.8612484	-0.48245015	5.40294288	2.82293943	-11.73244347	19.35204794	0.33775695	11.31362806	24.09130018	-11.15512169	-4.04581975	17.43227895	0.30425066	-1.74695813
6.09	-2.15436151	4.50451338	-179.6215145	0	0.86077005	-0.48255969	5.09935315	2.82960723	-11.61753669	19.49109806	0.34018384	11.75234367	24.59459721	-11.03238914	-4.66682842	15.78766072	0.27554666	-1.61091568
6.1	-2.07377767	4.81816452	-179.5757782	0	0.86000386	-0.48262308	4.87530283	3.15500147	-11.84419614	19.58259007	0.34178067	12.04485933	25.31267318	-11.31015514	-5.2008633	14.31221176	0.24979522	-1.26979288
6.11	-2.13308046	4.52373336	-179.5887768	0	0.85958829	-0.48250531	4.55153861	2.85158015	-11.53993424	19.86018859	0.34662568	12.68878406	25.48279633	-10.74747005	-5.84556238	12.1256493	0.2116325	-1.59561623
6.12	-2.06801473	4.58366633	-179.5753203	0	0.85879467	-0.48243958	4.34066432	2.92469543	-11.42769346	20.04551894	0.34986031	13.10005047	25.9651604	-10.633117	-6.38666838	10.22353122	0.17843428	-1.53248845
6.13	-1.97405003	4.6624677	-179.5629522	0	0.85790387	-0.48232191	4.16578507	3.01005789	-11.35897018	20.24956766	0.35342163	13.53217294	26.46727216	-10.50125414	-6.86377329	8.29247471	0.14473099	-1.48979593
6.14	-1.88895039	4.71252603	-179.5462495	0	0.85696758	-0.48216279	4.01212064	3.04091062	-11.34887748	20.50637717	0.3579038	14.03857702	26.89180264	-10.28567344	-7.24658626	6.21266806	0.10843151	-1.56741267
6.15	-1.78855223	4.80445609	-179.5302602	0	0.85592601	-0.48195069	3.87789069	3.11459687	-11.35233755	20.76780664	0.3624666	14.51318882	27.34690964	-10.07048106	-7.51210188	4.17417909	0.07285317	-1.58953107
6.16	-1.66941538	4.9053013	-179.5136117	0	0.85478363	-0.4817037	3.78889788	3.18123423	-11.40589236	21.08499223	0.36800254	15.01565756	27.85712394	-9.84351054	-7.66805684	2.22121146	0.03876745	-1.61237655
6.17	-1.56001909	5.249724	-179.4700486	0	0.85343144	-0.48162741	3.63243544	3.54936932	-11.46361755	21.24567972	0.37080706	15.34682799	28.67792989	-10.09343057	-8.00664137	0.93461272	0.01631207	-1.22423228
6.18	-1.34957277	5.69739616	-179.4480997	0	0.85169662	-0.48173105	3.66017246	4.0500629	-11.38775262	21.54175342	0.37597452	15.89293092	29.98671191	-10.68305875	-8.58810326	0.42595315	0.00743428	-0.55951658
6.19	-0.52016744	6.17780155	-179.4432866	0	0.84911163	-0.4818767	4.45006118	4.57450983	-11.25474138	22.01746243	0.38427721	16.58889209	32.1558989	-11.26629831	-8.94534406	0.28548415	0.00498264	0.28139464
6.2	-0.13919527	6.69611114	-179.4342038	0	0.84706477	-0.48207647	4.6546442	5.1596396	-11.16248081	22.2979491	0.38917263	17.10959533	33.80989768	-11.98836466	-9.47109846	0.20938911	0.00365453	1.11550085
6.21	0.27251021	7.20174284	-179.426683	0	0.84498296	-0.48225021	4.89162903	5.71453981	-11.14978935	22.59423811	0.39434385	17.61166554	35.47458036	-12.65173135	-9.87561149	0.16715716	0.00291744	1.87103257
6.22	0.59867944	7.69182808	-179.4314906	0	0.84302517	-0.48245263	4.98839501	6.26741179	-11.08059003	22.81748923	0.39824031	18.09198262	36.99100909	-13.29212272	-10.23712819	0.14126764	0.00246559	2.59428738
6.23	0.89297415	8.16178373	-179.4456209	0	0.84112105	-0.48264209	5.02960684	6.78970207	-11.04833739	23.02010251	0.40177658	18.54643299	38.4134778	-13.8800185	-10.50186647	0.1241323	0.00216652	3.25055019
6.24	0.87023341	8.60487438	-179.4411277	0	0.83959844	-0.48279578	4.68331109	7.25538972	-11.19360899	23.15968294	0.40421272	18.92899884	39.4107312	-14.47656515	-10.81381405	0.11173972	0.00195023	3.75695018
6.25	1.02476882	9.03285017	-179.4806412	0	0.83791885	-0.48301	4.47861653	7.75515567	-11.0626293	23.23823553	0.40558372	19.36418638	40.51661027	-15.00688511	-10.97964908	0.1042216	0.00181901	4.35208211
6.26	1.31041438	9.41517158	-179.5275291	0	0.83608842	-0.48315592	4.39141569	8.20887716	-10.85587021	23.28332906	0.40637075	19.71652752	41.69269062	-15.34945679	-10.8146891	0.09796781	0.00170986	4.84281185
6.27	1.19358624	9.5500267	-179.5270239	0	0.83476176	-0.48310925	3.83992037	8.30654392	-11.05066434	23.3227875	0.40705943	20.0246974	42.27884649	-15.46229957	-10.75841797	0.09114704	0.00159082	4.9508992
6.28	1.17266227	10.05082157	-179.5909438	0	0.83321723	-0.48333831	3.41163671	8.85530221	-11.0072836	23.42128852	0.4087786	20.37477473	42.95851102	-16.06702792	-10.77335516	0.09064495	0.00158205	5.41787571
